<svg xmlns="http://www.w3.org/2000/svg" version="1.1" width="36"
     height="36" viewBox="0 0 1080 1080" xml:space="preserve">
    <g transform="matrix(1 0 0 1 540 540)" id="08567539-0f63-44a4-8b54-9077a645673a">
        <rect style="stroke: none; stroke-width: 1; stroke-dasharray: none; stroke-linecap: butt; stroke-dashoffset: 0; stroke-linejoin: miter; stroke-miterlimit: 4; fill: rgb(255,255,255); fill-rule: nonzero; opacity: 1; visibility: hidden;"
              vector-effect="non-scaling-stroke" x="-540" y="-540" rx="0" ry="0" width="1080" height="1080"/>
    </g>
    <g transform="matrix(45 0 0 45 540 540)">
        <path style="stroke: none; stroke-width: 1; stroke-dasharray: none; stroke-linecap: butt; stroke-dashoffset: 0; stroke-linejoin: miter; stroke-miterlimit: 4; fill: rgb(75,85,99); fill-rule: nonzero; opacity: 1 width: 200px;"
              transform=" translate(-12, -9)"
              d="M 14.017 18 L 14.017 10.609 C 14.017 4.905 17.748 1.039 23 0 L 23.995 2.151 C 21.563 3.068 20 5.789 20 8 L 24 8 L 24 18 L 14.017 18 Z M 0 18 L 0 10.609 C 0 4.905 3.748 1.038 9 0 L 9.996 2.151 C 7.563 3.068 6 5.789 6 8 L 9.983 8 L 9.983 18 L 0 18 Z"
              stroke-linecap="round"
        />
    </g>
</svg>